<svg width="23" height="24" viewBox="0 0 23 24" fill="none" xmlns="http://www.w3.org/2000/svg">
<path d="M12.139 15.54L17.224 9.88C17.3083 9.78703 17.3753 9.67643 17.421 9.55457C17.4667 9.43271 17.4902 9.30201 17.4902 9.17C17.4902 9.03799 17.4667 8.90728 17.421 8.78542C17.3753 8.66356 17.3083 8.55296 17.224 8.46C17.0554 8.27375 16.8273 8.1692 16.5895 8.1692C16.3517 8.1692 16.1236 8.27375 15.955 8.46L11.455 13.41L6.99999 8.46C6.83136 8.27375 6.60325 8.1692 6.36549 8.1692C6.12772 8.1692 5.89961 8.27375 5.73099 8.46C5.64595 8.55261 5.57829 8.66306 5.53195 8.78493C5.4856 8.90681 5.46148 9.03769 5.46099 9.17C5.46148 9.3023 5.4856 9.43319 5.53195 9.55506C5.57829 9.67694 5.64595 9.78738 5.73099 9.88L10.816 15.54C10.9003 15.6415 11.0025 15.7225 11.1164 15.7779C11.2302 15.8333 11.3532 15.8619 11.4775 15.8619C11.6018 15.8619 11.7247 15.8333 11.8386 15.7779C11.9524 15.7225 12.0547 15.6415 12.139 15.54V15.54Z" fill="#2FD9B9"/>
</svg>
